name ./resultDataOpenSim/trcMotMarkerGrf/sub09/grf-05-03.mot
datacolumns 19
datarows 30
range 0.50800000 0.62400000
endheader

                time	     ground_force_vx	     ground_force_vy	     ground_force_vz	     ground_force_px	     ground_force_py	     ground_force_pz	   l_ground_force_vx	   l_ground_force_vy	   l_ground_force_vz	   l_ground_force_px	   l_ground_force_py	   l_ground_force_pz	     ground_torque_x	     ground_torque_y	     ground_torque_z	   l_ground_torque_x	   l_ground_torque_y	   l_ground_torque_z	
          0.50800000	         17.30851600	        291.46514790	        -24.04115358	         -0.71349099	          0.00000000	          0.14730699	          0.00000000	          0.00000000	          0.00000000	          0.00000000	          0.00000000	          0.00000000	          0.00000000	          0.94944680	          0.00000000	          0.00000000	          0.00000000	          0.00000000	
          0.51200000	         17.74795852	        293.74808123	        -22.32242533	         -0.71305532	          0.00000000	          0.14603762	          0.00000000	          0.00000000	          0.00000000	          0.00000000	          0.00000000	          0.00000000	          0.00000000	          1.33336132	          0.00000000	          0.00000000	          0.00000000	          0.00000000	
          0.51600000	         18.14483816	        297.78286599	        -20.44085801	         -0.71284791	          0.00000000	          0.14453858	          0.00000000	          0.00000000	          0.00000000	          0.00000000	          0.00000000	          0.00000000	          0.00000000	          1.73447979	          0.00000000	          0.00000000	          0.00000000	          0.00000000	
          0.52000000	         18.63090861	        303.74615492	        -18.54344639	         -0.71290466	          0.00000000	          0.14286885	          0.00000000	          0.00000000	          0.00000000	          0.00000000	          0.00000000	          0.00000000	          0.00000000	          2.12912522	          0.00000000	          0.00000000	          0.00000000	          0.00000000	
          0.52400000	         19.38536130	        311.78287243	        -16.69566597	         -0.71323982	          0.00000000	          0.14110487	          0.00000000	          0.00000000	          0.00000000	          0.00000000	          0.00000000	          0.00000000	          0.00000000	          2.50183363	          0.00000000	          0.00000000	          0.00000000	          0.00000000	
          0.52800000	         20.60645365	        321.97886165	        -14.87768613	         -0.71385974	          0.00000000	          0.13931553	          0.00000000	          0.00000000	          0.00000000	          0.00000000	          0.00000000	          0.00000000	          0.00000000	          2.84791250	          0.00000000	          0.00000000	          0.00000000	          0.00000000	
          0.53200000	         22.47447304	        334.32462236	        -13.00453174	         -0.71473683	          0.00000000	          0.13755662	          0.00000000	          0.00000000	          0.00000000	          0.00000000	          0.00000000	          0.00000000	          0.00000000	          3.17349713	          0.00000000	          0.00000000	          0.00000000	          0.00000000	
          0.53600000	         25.11213856	        348.70594041	        -10.96391147	         -0.71580816	          0.00000000	          0.13588063	          0.00000000	          0.00000000	          0.00000000	          0.00000000	          0.00000000	          0.00000000	          0.00000000	          3.49305361	          0.00000000	          0.00000000	          0.00000000	          0.00000000	
          0.54000000	         28.55520456	        364.93055172	         -8.66245071	         -0.71698519	          0.00000000	          0.13433218	          0.00000000	          0.00000000	          0.00000000	          0.00000000	          0.00000000	          0.00000000	          0.00000000	          3.82483148	          0.00000000	          0.00000000	          0.00000000	          0.00000000	
          0.54400000	         32.74220470	        382.75789601	         -6.07216886	         -0.71816662	          0.00000000	          0.13294624	          0.00000000	          0.00000000	          0.00000000	          0.00000000	          0.00000000	          0.00000000	          0.00000000	          4.18524972	          0.00000000	          0.00000000	          0.00000000	          0.00000000	
          0.54800000	         37.52225294	        401.90242465	         -3.26585433	         -0.71925069	          0.00000000	          0.13175183	          0.00000000	          0.00000000	          0.00000000	          0.00000000	          0.00000000	          0.00000000	          0.00000000	          4.58347045	          0.00000000	          0.00000000	          0.00000000	          0.00000000	
          0.55200000	         42.67862120	        422.02245991	         -0.42891151	         -0.72012423	          0.00000000	          0.13078074	          0.00000000	          0.00000000	          0.00000000	          0.00000000	          0.00000000	          0.00000000	          0.00000000	          5.01738370	          0.00000000	          0.00000000	          0.00000000	          0.00000000	
          0.55600000	         47.96671997	        442.73150721	          2.15576707	         -0.72066982	          0.00000000	          0.13006752	          0.00000000	          0.00000000	          0.00000000	          0.00000000	          0.00000000	          0.00000000	          0.00000000	          5.47191204	          0.00000000	          0.00000000	          0.00000000	          0.00000000	
          0.56000000	         53.16117418	        463.64844800	          4.14474069	         -0.72079609	          0.00000000	          0.12963924	          0.00000000	          0.00000000	          0.00000000	          0.00000000	          0.00000000	          0.00000000	          0.00000000	          5.92006653	          0.00000000	          0.00000000	          0.00000000	          0.00000000	
          0.56400000	         58.10159059	        484.46128048	          5.18648424	         -0.72046693	          0.00000000	          0.12950458	          0.00000000	          0.00000000	          0.00000000	          0.00000000	          0.00000000	          0.00000000	          0.00000000	          6.32666659	          0.00000000	          0.00000000	          0.00000000	          0.00000000	
          0.56800000	         62.72532466	        504.96821339	          4.98176720	         -0.71971417	          0.00000000	          0.12965095	          0.00000000	          0.00000000	          0.00000000	          0.00000000	          0.00000000	          0.00000000	          0.00000000	          6.65413514	          0.00000000	          0.00000000	          0.00000000	          0.00000000	
          0.57200000	         67.08040254	        525.08822661	          3.34010075	         -0.71861419	          0.00000000	          0.13004827	          0.00000000	          0.00000000	          0.00000000	          0.00000000	          0.00000000	          0.00000000	          0.00000000	          6.86934550	          0.00000000	          0.00000000	          0.00000000	          0.00000000	
          0.57600000	         71.31808041	        544.84892657	          0.22053538	         -0.71726024	          0.00000000	          0.13064777	          0.00000000	          0.00000000	          0.00000000	          0.00000000	          0.00000000	          0.00000000	          0.00000000	          6.95022284	          0.00000000	          0.00000000	          0.00000000	          0.00000000	
          0.58000000	         75.66877845	        564.35432808	         -4.24976417	         -0.71575267	          0.00000000	          0.13139083	          0.00000000	          0.00000000	          0.00000000	          0.00000000	          0.00000000	          0.00000000	          0.00000000	          6.89078766	          0.00000000	          0.00000000	          0.00000000	          0.00000000	
          0.58400000	         80.40407738	        583.73789883	         -9.78189636	         -0.71419822	          0.00000000	          0.13221154	          0.00000000	          0.00000000	          0.00000000	          0.00000000	          0.00000000	          0.00000000	          0.00000000	          6.70359170	          0.00000000	          0.00000000	          0.00000000	          0.00000000	
          0.58800000	         85.78604144	        603.10305541	        -15.95547221	         -0.71269353	          0.00000000	          0.13304081	          0.00000000	          0.00000000	          0.00000000	          0.00000000	          0.00000000	          0.00000000	          0.00000000	          6.41896771	          0.00000000	          0.00000000	          0.00000000	          0.00000000	
          0.59200000	         92.01140335	        622.46435298	        -22.26711634	         -0.71131022	          0.00000000	          0.13381852	          0.00000000	          0.00000000	          0.00000000	          0.00000000	          0.00000000	          0.00000000	          0.00000000	          6.08110773	          0.00000000	          0.00000000	          0.00000000	          0.00000000	
          0.59600000	         99.16390657	        641.72570657	        -28.19166050	         -0.71008796	          0.00000000	          0.13449559	          0.00000000	          0.00000000	          0.00000000	          0.00000000	          0.00000000	          0.00000000	          0.00000000	          5.74159565	          0.00000000	          0.00000000	          0.00000000	          0.00000000	
          0.60000000	        107.18911004	        660.69807078	        -33.25289776	         -0.70903273	          0.00000000	          0.13503240	          0.00000000	          0.00000000	          0.00000000	          0.00000000	          0.00000000	          0.00000000	          0.00000000	          5.45151391	          0.00000000	          0.00000000	          0.00000000	          0.00000000	
          0.60400000	        115.90234463	        679.12483979	        -37.09621773	         -0.70813086	          0.00000000	          0.13539518	          0.00000000	          0.00000000	          0.00000000	          0.00000000	          0.00000000	          0.00000000	          0.00000000	          5.25354532	          0.00000000	          0.00000000	          0.00000000	          0.00000000	
          0.60800000	        125.03054485	        696.70585025	        -39.54267382	         -0.70732847	          0.00000000	          0.13558705	          0.00000000	          0.00000000	          0.00000000	          0.00000000	          0.00000000	          0.00000000	          0.00000000	          5.17555283	          0.00000000	          0.00000000	          0.00000000	          0.00000000	
          0.61200000	        134.27543271	        713.12045221	        -40.60163626	         -0.70657363	          0.00000000	          0.13562226	          0.00000000	          0.00000000	          0.00000000	          0.00000000	          0.00000000	          0.00000000	          0.00000000	          5.22682689	          0.00000000	          0.00000000	          0.00000000	          0.00000000	
          0.61600000	        143.37356603	        728.05121117	        -40.44036478	         -0.70581983	          0.00000000	          0.13552321	          0.00000000	          0.00000000	          0.00000000	          0.00000000	          0.00000000	          0.00000000	          0.00000000	          5.39757469	          0.00000000	          0.00000000	          0.00000000	          0.00000000	
          0.62000000	        152.13383766	        741.21830992	        -39.33009199	         -0.70503925	          0.00000000	          0.13531606	          0.00000000	          0.00000000	          0.00000000	          0.00000000	          0.00000000	          0.00000000	          0.00000000	          5.66158704	          0.00000000	          0.00000000	          0.00000000	          0.00000000	
          0.62400000	        160.45150882	        752.41956059	        -37.58608558	         -0.70422392	          0.00000000	          0.13502990	          0.00000000	          0.00000000	          0.00000000	          0.00000000	          0.00000000	          0.00000000	          0.00000000	          5.98152079	          0.00000000	          0.00000000	          0.00000000	          0.00000000	
